<svg xmlns="http://www.w3.org/2000/svg" width="512" height="512" viewBox="0 0 512 512">
  <defs>
    <linearGradient id="bgGrad" x1="0" y1="0" x2="1" y2="1">
      <stop offset="0%" stop-color="#0F1923"/>
      <stop offset="100%" stop-color="#1A1A2E"/>
    </linearGradient>
    <linearGradient id="bubble1" x1="0" y1="0" x2="1" y2="1">
      <stop offset="0%" stop-color="#00FFA7"/>
      <stop offset="100%" stop-color="#00D68F"/>
    </linearGradient>
    <linearGradient id="bubble2" x1="0" y1="0" x2="1" y2="1">
      <stop offset="0%" stop-color="#00B8FF"/>
      <stop offset="100%" stop-color="#4A00E0"/>
    </linearGradient>
  </defs>
  <!-- Background circle (maskable) -->
  <rect width="512" height="512" rx="112" fill="url(#bgGrad)"/>
  <!-- Chat bubble 1 (green) - back -->
  <path d="M370 200c0-55-45-100-100-100s-100 45-100 100c0 30 13 57 34 76l-18 54 58-28c23 8 48 9 72 2l57 28-18-56c20-18 33-44 33-72l-18-4z" fill="url(#bubble1)" opacity="0.9"/>
  <!-- Chat bubble 2 (blue-purple) - front overlapping -->
  <path d="M280 180c0-44-36-80-80-80s-80 36-80 80c0 24 11 46 28 61l-14 44 48-24c18 7 38 8 56 2l46 24-14-46c16-15 26-36 26-59l-16-2z" fill="url(#bubble2)" opacity="0.85" transform="translate(30, 60)"/>
  <!-- ChatMix text mark -->
  <g transform="translate(256, 420)">
    <text text-anchor="middle" font-family="Arial, Helvetica, sans-serif" font-weight="800" font-size="36" fill="#00FFA7" letter-spacing="2">CHAT</text>
    <text text-anchor="middle" font-family="Arial, Helvetica, sans-serif" font-weight="800" font-size="36" fill="#00B8FF" letter-spacing="2" y="40">MIX</text>
  </g>
</svg>
